0
SECTION
2
HEADER
9
$INSUNITS
70
4
9
$ACADVER
1
AC1014
9
$HANDSEED
5
FFFF
0
ENDSEC
0
SECTION
2
TABLES
0
TABLE
2
VPORT
5
8
100
AcDbSymbolTable
0
ENDTAB
0
TABLE
2
LTYPE
5
5
100
AcDbSymbolTable
0
LTYPE
5
14
100
AcDbSymbolTableRecord
100
AcDbLinetypeTableRecord
2
BYBLOCK
70
0
0
LTYPE
5
15
100
AcDbSymbolTableRecord
100
AcDbLinetypeTableRecord
2
BYLAYER
70
0
0
ENDTAB
0
TABLE
2
LAYER
5
2
100
AcDbSymbolTable
70
2
0
LAYER
5
50
100
AcDbSymbolTableRecord
100
AcDbLayerTableRecord
2
0
70
0
6
CONTINUOUS
0
ENDTAB
0
TABLE
2
STYLE
5
3
100
AcDbSymbolTable
70
1
0
STYLE
5
11
100
AcDbSymbolTableRecord
100
AcDbTextStyleTableRecord
2
STANDARD
70
0
0
ENDTAB
0
TABLE
2
VIEW
5
6
100
AcDbSymbolTable
70
0
0
ENDTAB
0
TABLE
2
UCS
5
7
100
AcDbSymbolTable
70
0
0
ENDTAB
0
TABLE
2
APPID
5
9
100
AcDbSymbolTable
70
2
0
APPID
5
12
100
AcDbSymbolTableRecord
100
AcDbRegAppTableRecord
2
ACAD
70
0
0
ENDTAB
0
TABLE
2
DIMSTYLE
5
A
100
AcDbSymbolTable
70
1
0
ENDTAB
0
TABLE
2
BLOCK_RECORD
5
1
100
AcDbSymbolTable
70
1
0
BLOCK_RECORD
5
1F
100
AcDbSymbolTableRecord
100
AcDbBlockTableRecord
2
*MODEL_SPACE
0
BLOCK_RECORD
5
1B
100
AcDbSymbolTableRecord
100
AcDbBlockTableRecord
2
*PAPER_SPACE
0
ENDTAB
0
ENDSEC
0
SECTION
2
BLOCKS
0
BLOCK
5
20
100
AcDbEntity
100
AcDbBlockBegin
2
*MODEL_SPACE
0
ENDBLK
5
21
100
AcDbEntity
100
AcDbBlockEnd
0
BLOCK
5
1C
100
AcDbEntity
100
AcDbBlockBegin
2
*PAPER_SPACE
0
ENDBLK
5
1D
100
AcDbEntity
100
AcDbBlockEnd
0
ENDSEC
0
SECTION
2
ENTITIES
0
CIRCLE
5
100
100
AcDbEntity
8
0
100
AcDbCircle
10
90.749999999999957
20
57.750000000000021
30
0
40
1.25
210
0
220
-0
230
1
0
CIRCLE
5
101
100
AcDbEntity
8
0
100
AcDbCircle
10
-90.749999999999886
20
-57.749999999999986
30
0
40
1.25
210
0
220
-0
230
1
0
CIRCLE
5
102
100
AcDbEntity
8
0
100
AcDbCircle
10
-90.75
20
57.750000000000021
30
0
40
1.25
210
0
220
-0
230
1
0
CIRCLE
5
103
100
AcDbEntity
8
0
100
AcDbCircle
10
90.750000000000057
20
-57.749999999999986
30
0
40
1.25
210
0
220
-0
230
1
0
LWPOLYLINE
5
104
100
AcDbEntity
8
0
100
AcDbPolyline
90
28
70
1
43
0.0
10
96.165265560253374
20
58.002500000000062
10
96.165265560253346
20
67.002500000000055
42
0.41421356237309509
10
95.501249999999871
20
67.666515560253529
10
9.5024999999962922
20
67.666515560253458
42
0.41421356237309448
10
8.8359844397464826
20
67.000000000003638
42
-0.99999999999999989
10
-8.8359844397465714
20
67.000000000003666
42
0.41421356237309653
10
-9.5024999999963846
20
67.666515560253472
10
-95.501250000000013
20
67.666515560253458
42
0.41421356237310281
10
-96.165265560253474
20
67.002499999999984
10
-96.165265560253417
20
58.002500000000019
42
-0.4142135623730962
10
-105.00124999999997
20
49.166515560253472
42
0.41421356237309509
10
-105.6652655602534
20
48.502500000000026
10
-105.6652655602533
20
-48.502500000000026
42
0.41421356237309892
10
-105.00124999999981
20
-49.166515560253494
42
-0.41421356237309442
10
-96.165265560253317
20
-58.002500000000012
10
-96.165265560253317
20
-67.002499999999998
42
0.41421356237307938
10
-95.501249999999871
20
-67.666515560253472
10
-9.502499999996239
20
-67.66651556025343
42
0.41421356237309448
10
-8.8359844397464329
20
-67.000000000003624
42
-0.99999999999999989
10
8.8359844397466283
20
-67.000000000003624
42
0.41421356237309698
10
9.5024999999964397
20
-67.66651556025343
10
95.501250000000056
20
-67.666515560253472
42
0.41421356237309892
10
96.165265560253516
20
-67.002499999999984
10
96.165265560253474
20
-58.002500000000012
42
-0.41421356237309509
10
105.00125
20
-49.166515560253472
42
0.41421356237309509
10
105.66526556025346
20
-48.502500000000019
10
105.66526556025337
20
48.502500000000069
42
0.41421356237309892
10
105.0012499999999
20
49.166515560253565
42
-0.41421356237309442
0
ENDSEC
0
SECTION
2
OBJECTS
0
DICTIONARY
5
C
100
AcDbDictionary
3
ACAD_GROUP
350
D
3
ACAD_MLINESTYLE
350
17
0
DICTIONARY
5
D
100
AcDbDictionary
0
DICTIONARY
5
1A
330
C
100
AcDbDictionary
0
DICTIONARY
5
17
100
AcDbDictionary
0
ENDSEC
0
EOF
